<?xml version="1.0" encoding="utf-8"?>
<!-- Generator: Adobe Illustrator 16.0.0, SVG Export Plug-In . SVG Version: 6.00 Build 0)  -->
<!DOCTYPE svg PUBLIC "-//W3C//DTD SVG 1.1//EN" "http://www.w3.org/Graphics/SVG/1.1/DTD/svg11.dtd">
<svg version="1.1" id="Ebene_1" xmlns="http://www.w3.org/2000/svg" xmlns:xlink="http://www.w3.org/1999/xlink" x="0px" y="0px"
	 width="115.646px" height="118.368px" viewBox="0 0 115.646 118.368" enable-background="new 0 0 115.646 118.368"
	 xml:space="preserve">
<g>
	<polygon fill="#DC8C1E" points="27.953,106.631 23.503,102.828 17.63,100.41 23.231,31.278 29.817,28.478 	"/>
</g>
<path fill="#E6AA46" d="M96.042,28.38H80.003v-4.293c0-5.719-2.027-11.876-6.477-11.876h-23.89c-4.45,0-6.476,6.157-6.476,11.876
	v4.293h-9.304l-1.866,78.361l65.92-6.021L96.042,28.38z M48.724,24.087c0-3.314,0.823-5.604,1.355-6.313h23.005
	c0.533,0.708,1.354,2.998,1.354,6.313v4.293H48.724V24.087z M51.62,45.535c3.698,0,6.694,2.996,6.694,6.688
	c0,1.175-0.329,2.263-0.859,3.223c-1.175-1.922-3.275-3.219-5.693-3.219c-2.523,0-4.692,1.414-5.832,3.474
	c-0.621-1.017-0.998-2.199-0.998-3.478C44.932,48.531,47.925,45.535,51.62,45.535z M83.225,67.25
	C78.51,78.042,69.158,81.255,60.461,81.255c-5.431,0-10.606-1.252-14.24-2.695c-1.07-0.427-1.592-1.638-1.168-2.706
	c0.424-1.07,1.632-1.597,2.708-1.173c0.965,0.382,23.687,9.111,31.64-9.102c0.462-1.056,1.689-1.535,2.748-1.077
	C83.203,64.964,83.685,66.193,83.225,67.25z M76.843,59.548c-3.697,0-6.69-2.994-6.69-6.691c0-3.7,2.994-6.691,6.69-6.691
	c3.692,0,6.691,2.991,6.691,6.691C83.535,56.554,80.536,59.548,76.843,59.548z"/>
</svg>
