<?xml version="1.0" encoding="utf-8"?>
<!-- Generator: Adobe Illustrator 16.0.0, SVG Export Plug-In . SVG Version: 6.00 Build 0)  -->
<!DOCTYPE svg PUBLIC "-//W3C//DTD SVG 1.1//EN" "http://www.w3.org/Graphics/SVG/1.1/DTD/svg11.dtd">
<svg version="1.1" id="Ebene_1" xmlns="http://www.w3.org/2000/svg" xmlns:xlink="http://www.w3.org/1999/xlink" x="0px" y="0px"
	 width="306.122px" height="118.368px" viewBox="0 0 306.122 118.368" enable-background="new 0 0 306.122 118.368"
	 xml:space="preserve">
<g>
	<path fill="#1E1E1E" d="M137.847,91.41c-2.602,0-4.885-0.492-6.846-1.469c-1.962-0.984-3.487-2.456-4.575-4.418
		c-1.087-1.961-1.633-4.434-1.633-7.421c0-2.942,0.406-5.779,1.216-8.509c0.811-2.73,2.015-5.172,3.615-7.327
		c1.6-2.153,3.573-3.872,5.918-5.151c2.346-1.279,5.076-1.919,8.19-1.919c3.668,0,6.452,0.875,8.349,2.623
		c1.897,1.75,2.847,4.011,2.847,6.782c0,2.476-0.692,4.63-2.078,6.463c-1.386,1.835-3.488,3.263-6.302,4.287
		c-2.815,1.024-6.377,1.535-10.686,1.535h-1.535c-0.043,0.257-0.063,0.481-0.063,0.672s0,0.416,0,0.673
		c0,1.875,0.479,3.358,1.439,4.445c0.959,1.086,2.356,1.629,4.19,1.629c1.749,0,3.338-0.211,4.767-0.637
		c1.429-0.427,3.104-1.109,5.023-2.046l-0.063,7.101c-1.75,0.896-3.531,1.568-5.342,2.016
		C142.464,91.184,140.32,91.41,137.847,91.41z M136.632,70.552c2.216,0,3.998-0.267,5.341-0.8s2.335-1.226,2.975-2.08
		c0.64-0.852,0.96-1.791,0.96-2.815c0-0.98-0.257-1.706-0.768-2.176c-0.513-0.469-1.238-0.703-2.176-0.703
		c-1.067,0-2.123,0.362-3.168,1.088c-1.044,0.725-1.95,1.727-2.719,3.007c-0.768,1.279-1.322,2.774-1.663,4.479H136.632z"/>
	<path fill="#1E1E1E" d="M168.108,91.41c-2.218,0-4.232-0.256-6.047-0.769c-1.812-0.51-3.357-1.192-4.639-2.048l0.066-8.571
		c1.192,0.682,2.388,1.279,3.583,1.79c1.192,0.512,2.397,0.907,3.613,1.184c1.215,0.278,2.42,0.416,3.615,0.416
		c0.982,0,1.865-0.104,2.657-0.316c0.786-0.216,1.479-0.525,2.078-0.929c0.597-0.408,1.056-0.93,1.375-1.571
		c0.32-0.639,0.479-1.384,0.479-2.237c0-1.152-0.213-2.132-0.639-2.943c-0.427-0.81-1.023-1.557-1.792-2.239
		c-0.769-0.682-1.664-1.408-2.688-2.175c-1.194-0.938-2.334-1.983-3.423-3.134c-1.088-1.152-1.974-2.496-2.656-4.032
		c-0.681-1.534-1.022-3.326-1.022-5.374c0-2.047,0.362-3.923,1.088-5.63c0.724-1.706,1.749-3.188,3.07-4.446
		c1.322-1.257,2.913-2.229,4.769-2.912c1.854-0.682,3.933-1.023,6.236-1.023c2.262,0,4.372,0.255,6.334,0.768
		c1.961,0.512,3.818,1.279,5.567,2.304l-3.393,7.294c-1.533-0.769-3.007-1.345-4.413-1.728c-1.408-0.384-2.794-0.576-4.159-0.576
		c-0.812,0-1.548,0.119-2.207,0.352c-0.662,0.234-1.229,0.576-1.695,1.024c-0.47,0.447-0.832,0.992-1.089,1.631
		c-0.256,0.64-0.385,1.365-0.385,2.175c0,1.067,0.192,1.973,0.575,2.719c0.386,0.747,0.972,1.451,1.762,2.112
		c0.789,0.662,1.737,1.398,2.847,2.208c1.578,1.066,2.88,2.229,3.902,3.487c1.025,1.258,1.792,2.613,2.305,4.063
		c0.512,1.451,0.766,3.049,0.766,4.799c0,2.432-0.413,4.544-1.246,6.333c-0.832,1.792-1.994,3.285-3.488,4.48
		c-1.492,1.196-3.24,2.078-5.245,2.654S170.412,91.41,168.108,91.41z"/>
	<path fill="#1E1E1E" d="M189.605,90.772l10.3-48.627h9.406l-1.791,8.446c-0.214,0.98-0.46,2.047-0.736,3.198
		c-0.279,1.152-0.565,2.24-0.862,3.263c-0.3,1.024-0.543,1.855-0.736,2.495c-0.192,0.639-0.31,0.96-0.353,0.96h0.256
		c0.81-1.066,1.665-1.994,2.561-2.784c0.894-0.789,1.888-1.408,2.974-1.855c1.089-0.448,2.271-0.672,3.553-0.672
		c1.918,0,3.517,0.406,4.796,1.215c1.281,0.811,2.23,1.952,2.85,3.423c0.616,1.472,0.929,3.211,0.929,5.214
		c0,0.811-0.076,1.707-0.226,2.688c-0.15,0.98-0.33,2.025-0.543,3.135l-4.096,19.899h-9.47l4.285-20.411
		c0.17-0.725,0.3-1.407,0.386-2.049c0.084-0.639,0.127-1.214,0.127-1.727c0-1.279-0.254-2.229-0.766-2.846
		c-0.513-0.619-1.259-0.928-2.241-0.928c-1.238,0-2.367,0.607-3.39,1.823c-1.025,1.215-1.919,2.847-2.688,4.894
		c-0.769,2.048-1.429,4.31-1.984,6.782l-3.134,14.462H189.605z"/>
	<path fill="#1E1E1E" d="M240.857,91.41c-3.756,0-6.796-1.182-9.117-3.55c-2.327-2.37-3.489-5.6-3.489-9.693
		c0-2.474,0.244-4.852,0.733-7.135c0.492-2.28,1.218-4.382,2.18-6.301c0.957-1.919,2.162-3.594,3.613-5.023
		c1.449-1.429,3.144-2.537,5.085-3.326c1.938-0.79,4.105-1.185,6.496-1.185c2.599,0,4.829,0.544,6.684,1.631
		c1.854,1.088,3.296,2.646,4.321,4.671c1.021,2.026,1.532,4.469,1.532,7.325c0,2.347-0.235,4.639-0.702,6.878
		c-0.47,2.24-1.186,4.309-2.145,6.208c-0.957,1.896-2.154,3.558-3.583,4.988s-3.113,2.54-5.052,3.329
		C245.473,91.017,243.285,91.41,240.857,91.41z M241.75,83.733c0.937,0,1.802-0.267,2.591-0.801
		c0.792-0.532,1.492-1.277,2.111-2.239c0.619-0.959,1.152-2.068,1.602-3.326c0.446-1.258,0.778-2.612,0.989-4.063
		c0.213-1.451,0.322-2.922,0.322-4.416c0-1.15-0.129-2.184-0.386-3.103c-0.256-0.917-0.659-1.631-1.216-2.143
		c-0.553-0.512-1.301-0.768-2.237-0.768c-1.025,0-1.954,0.319-2.784,0.958c-0.832,0.64-1.558,1.504-2.174,2.592
		c-0.619,1.088-1.13,2.292-1.538,3.615c-0.403,1.322-0.713,2.688-0.929,4.095c-0.213,1.408-0.317,2.73-0.317,3.967
		c0,1.834,0.327,3.232,0.992,4.191C239.438,83.252,240.426,83.733,241.75,83.733z"/>
	<path fill="#1E1E1E" d="M259.089,106.125l10.686-50.288h7.229l-0.51,5.311h0.254c0.683-1.024,1.474-1.983,2.37-2.879
		c0.893-0.895,1.905-1.631,3.037-2.208c1.129-0.575,2.38-0.863,3.743-0.863c1.661,0,3.199,0.406,4.607,1.215
		c1.406,0.811,2.548,2.134,3.423,3.968c0.873,1.833,1.31,4.265,1.31,7.292c0,2.261-0.233,4.533-0.7,6.814
		c-0.475,2.282-1.152,4.436-2.051,6.461c-0.896,2.027-1.981,3.831-3.266,5.407c-1.276,1.58-2.715,2.813-4.315,3.709
		c-1.599,0.896-3.337,1.345-5.212,1.345c-1.284,0-2.381-0.226-3.299-0.671c-0.919-0.447-1.695-1.064-2.335-1.858
		c-0.637-0.787-1.213-1.652-1.726-2.588h-0.259c-0.124,1.705-0.31,3.263-0.543,4.669c-0.233,1.408-0.522,2.923-0.865,4.542
		l-2.237,10.621H259.089z M278.089,83.795c0.853,0,1.665-0.3,2.434-0.896c0.767-0.597,1.459-1.416,2.078-2.463
		c0.617-1.044,1.162-2.239,1.635-3.583c0.467-1.343,0.829-2.761,1.086-4.255c0.256-1.491,0.386-2.963,0.386-4.415
		c0-1.792-0.3-3.135-0.896-4.03c-0.599-0.896-1.494-1.344-2.689-1.344c-0.896,0-1.718,0.267-2.461,0.799
		c-0.746,0.534-1.408,1.239-1.984,2.112c-0.576,0.875-1.078,1.866-1.505,2.975c-0.426,1.109-0.776,2.25-1.053,3.423
		c-0.279,1.174-0.482,2.304-0.609,3.392c-0.129,1.086-0.192,2.058-0.192,2.911c0,1.622,0.329,2.923,0.992,3.901
		C275.971,83.307,276.896,83.795,278.089,83.795z"/>
</g>
<g>
	<polygon fill="#DC8C1E" points="28.633,110.033 24.183,106.229 18.31,103.811 23.912,34.68 30.497,31.879 	"/>
</g>
<path fill="#E6AA46" d="M96.722,31.781H80.684v-4.293c0-5.719-2.027-11.876-6.477-11.876h-23.89c-4.45,0-6.476,6.157-6.476,11.876
	v4.293h-9.304l-1.866,78.361l65.92-6.021L96.722,31.781z M49.404,27.488c0-3.314,0.823-5.604,1.355-6.313h23.005
	c0.533,0.708,1.354,2.998,1.354,6.313v4.293H49.404V27.488z M58.134,58.847c-1.175-1.922-3.275-3.219-5.693-3.219
	c-2.523,0-4.692,1.414-5.832,3.474c-0.621-1.017-0.998-2.199-0.998-3.478c0-3.692,2.994-6.688,6.688-6.688
	c3.698,0,6.694,2.996,6.694,6.688C58.994,56.799,58.665,57.887,58.134,58.847z M77.523,62.949c-3.697,0-6.69-2.994-6.69-6.691
	c0-3.7,2.994-6.691,6.69-6.691c3.692,0,6.691,2.991,6.691,6.691C84.215,59.956,81.216,62.949,77.523,62.949z"/>
<g>
	<path fill="#FFFFFF" d="M61.141,84.657c-5.431,0-10.606-1.252-14.24-2.695c-1.07-0.427-1.592-1.638-1.168-2.706
		c0.424-1.07,1.632-1.597,2.708-1.173c0.965,0.382,23.687,9.111,31.64-9.102c0.462-1.056,1.689-1.535,2.748-1.077
		c1.056,0.462,1.538,1.69,1.077,2.748C79.19,81.443,69.838,84.657,61.141,84.657z"/>
</g>
</svg>
