<svg width="30" height="36" viewBox="0 0 30 36" fill="none" xmlns="http://www.w3.org/2000/svg">
<path d="M3.82885 35.2088L2.17832 33.8008L0 32.9055L2.07744 7.30917L4.52021 6.27246L3.82885 35.2088Z" fill="#FFA800"/>
<path d="M29.0833 6.23662H23.1344V4.64712C23.1344 2.52965 22.3826 0.25 20.7321 0.25H11.8712C10.2206 0.25 9.46917 2.52965 9.46917 4.64712V6.23662H6.01828L5.32617 35.25L29.7762 33.0207L29.0833 6.23662ZM11.5329 4.64712C11.5329 3.4201 11.8381 2.57223 12.0355 2.30972H20.5681C20.7658 2.57186 21.0703 3.41973 21.0703 4.64712V6.23662H11.5329V4.64712ZM12.607 12.5883C13.9786 12.5883 15.0899 13.6976 15.0899 15.0646C15.0899 15.4996 14.9678 15.9024 14.7713 16.2579C14.3354 15.5463 13.5565 15.066 12.6597 15.066C11.7239 15.066 10.9194 15.5896 10.4966 16.3523C10.2662 15.9757 10.1264 15.5381 10.1264 15.0646C10.1264 13.6976 11.2365 12.5883 12.607 12.5883ZM24.3295 20.6283C22.5806 24.6241 19.1119 25.8137 15.8862 25.8137C13.8718 25.8137 11.9524 25.3502 10.6045 24.8159C10.2076 24.6578 10.014 24.2094 10.1713 23.814C10.3286 23.4178 10.7766 23.2227 11.1757 23.3797C11.5336 23.5211 19.9613 26.7531 22.9111 20.0097C23.0825 19.6187 23.5376 19.4413 23.9304 19.6109C24.3213 19.7819 24.5001 20.237 24.3295 20.6283ZM21.9624 17.7767C20.5911 17.7767 19.481 16.6681 19.481 15.2993C19.481 13.9294 20.5915 12.8219 21.9624 12.8219C23.3317 12.8219 24.4441 13.9294 24.4441 15.2993C24.4444 16.6681 23.3321 17.7767 21.9624 17.7767Z" fill="#FFB800"/>
</svg>
